<svg xmlns="http://www.w3.org/2000/svg" width="473" height="492" viewBox="0 0 473 492" fill="none"><path d="M263.823 197.769C280.666 92.5869 360.452 84.5602 424.058 94.7445C487.663 104.929 630.037 160.939 584.782 272.439C539.527 383.94 598.329 390.212 611.014 457.655C623.699 525.098 492.912 617.996 253.401 557.501C78.4604 513.315 59.9629 457.085 96.0308 391.413C132.099 325.741 242.768 329.246 263.823 197.769Z" fill="url(#paint0_linear_656_12784)" fill-opacity="0.6"></path><path d="M316.143 186.378C374.369 114.921 456.728 144.963 491.667 173.43C526.605 201.897 583.285 270.414 514.419 363.081C445.554 455.748 577.545 512.54 554.817 566.116C532.09 619.692 274.808 588.115 153.298 464.703C64.5458 374.562 96.5742 307.144 148.821 270.969C201.067 234.794 243.361 275.699 316.143 186.378Z" fill="url(#paint1_linear_656_12784)" fill-opacity="0.3"></path><path d="M517.605 598.918C460.817 671.523 379.6 647.272 344.1 619.508C308.6 591.744 191.823 428.028 225.025 352.547C258.226 277.067 291.038 256.322 408.916 280.258C465.949 291.84 514.181 133.748 638.13 254.709C728.664 343.061 678.503 501.227 626.989 538.438C575.475 575.649 588.589 508.161 517.605 598.918Z" fill="url(#paint2_linear_656_12784)" fill-opacity="0.3"></path><defs><linearGradient id="paint0_linear_656_12784" x1="403.782" y1="112.631" x2="376.317" y2="617.021" gradientUnits="userSpaceOnUse"><stop stop-color="#EFD6E7"></stop><stop offset="1" stop-color="#692C91" stop-opacity="0"></stop></linearGradient><linearGradient id="paint1_linear_656_12784" x1="448.785" y1="188.607" x2="219.169" y2="559.072" gradientUnits="userSpaceOnUse"><stop stop-color="#C2278E"></stop><stop offset="1" stop-color="#692C91" stop-opacity="0"></stop></linearGradient><linearGradient id="paint2_linear_656_12784" x1="384.943" y1="599.328" x2="607.116" y2="224.353" gradientUnits="userSpaceOnUse"><stop stop-color="#692C91"></stop><stop offset="1" stop-color="#692C91" stop-opacity="0"></stop></linearGradient></defs></svg>