<svg xmlns="http://www.w3.org/2000/svg" width="1440" height="471" viewBox="0 0 1440 471" fill="none"><path d="M1494.56 22.3353C1450.77 -65.6268 1211.29 -73.4575 1041.8 -33.7614C846.478 11.9957 791.284 109.826 636.764 118.927C495.761 127.26 469.679 49.9945 366.948 60.1876C272.536 69.5579 138.213 150.317 -47.0604 441.28" stroke="url(#paint0_linear_340_32890)" stroke-opacity="0.5" stroke-miterlimit="10"></path><path d="M-33.2675 449.169C149.886 162.287 283.872 79.6627 379.101 67.8779C449.692 59.1981 485.06 91.5674 545.906 109.34C576.382 118.68 612.113 122.492 649.89 120.436C773.642 113.753 834.349 52.649 957.213 4.47556C988.517 -7.86032 1021.23 -18.1712 1054.67 -26.2449C1224.51 -67.5903 1459.67 -67.0554 1506.18 16.7271" stroke="url(#paint1_linear_340_32890)" stroke-opacity="0.5" stroke-miterlimit="10"></path><path d="M-19.4467 457.014C161.584 174.229 295.152 89.7737 391.007 75.6337C461.47 65.2431 497.998 95.4235 558.606 111.645C589.601 120.283 625.217 123.823 662.74 121.997C784.853 116.041 846.552 59.4084 970.065 12.0338C1001.44 -0.0452393 1034.03 -10.3342 1067.29 -18.6685C1237.59 -61.3658 1468.32 -68.4437 1517.54 11.1584" stroke="url(#paint2_linear_340_32890)" stroke-opacity="0.5" stroke-miterlimit="10"></path><path d="M-5.66355 464.835C173.2 186.207 306.436 99.9186 403.018 83.35C473.415 71.2682 510.985 99.2525 571.442 113.92C602.894 121.861 638.372 125.142 675.616 123.554C796.199 118.3 858.638 66.1786 982.942 19.5875C1014.4 7.71971 1046.89 -2.57293 1080.01 -11.1637C1250.69 -55.3832 1477.04 -69.8973 1528.98 5.52444" stroke="url(#paint3_linear_340_32890)" stroke-opacity="0.5" stroke-miterlimit="10"></path><path d="M8.14099 472.737C184.871 198.158 317.671 110.093 415.064 91.0767C485.315 77.3386 524.066 103.096 584.333 116.168C616.263 123.413 651.667 126.433 688.689 125.068C807.742 120.515 871.008 72.9026 996.154 27.0664C1027.64 15.4694 1059.97 5.21058 1092.86 -3.61911C1263.94 -49.3671 1485.92 -71.3014 1540.6 -0.0663258" stroke="url(#paint4_linear_340_32890)" stroke-opacity="0.5" stroke-miterlimit="10"></path><path d="M21.8263 480.631C196.513 210.114 328.633 118.689 427.105 98.7866C497.384 84.5353 537.12 106.825 597.171 118.443C629.561 124.973 664.887 127.73 701.677 126.599C819.201 122.748 883.238 79.6572 1009.04 34.6359C1040.56 23.2615 1072.77 13.0092 1105.48 3.94272C1276.96 -43.398 1494.57 -72.7042 1551.97 -5.63362" stroke="url(#paint5_linear_340_32890)" stroke-opacity="0.5" stroke-miterlimit="10"></path><path d="M35.7624 488.468C208.188 222.08 340.167 130.552 439.101 106.423C509.021 89.5835 550.253 110.639 610.042 120.728C642.856 126.544 678.111 129.044 714.671 128.147C830.665 124.998 895.553 86.393 1022.03 42.1804C1053.6 31.0475 1085.71 20.8111 1118.22 11.5116C1290.1 -37.3575 1503.32 -74.1482 1563.45 -11.2099" stroke="url(#paint6_linear_340_32890)" stroke-opacity="0.5" stroke-miterlimit="10"></path><path d="M49.5606 496.338C219.776 234.049 351.369 140.7 451.166 114.23C520.871 95.6826 563.408 114.296 622.906 122.982C656.119 128.078 691.315 130.313 727.65 129.631C842.091 127.206 907.837 93.1197 1035.01 49.6614C1064.61 39.5698 1096.28 29.1418 1130.94 19.001C1303.25 -31.4511 1512.09 -75.5431 1574.92 -16.8175" stroke="url(#paint7_linear_340_32890)" stroke-opacity="0.5" stroke-miterlimit="10"></path><path d="M63.3581 504.207C231.507 246.002 362.61 151.025 463.173 121.914C532.723 101.797 576.595 117.963 635.821 125.206C669.432 129.577 704.594 131.562 740.72 131.128C853.631 129.404 920.168 99.8013 1048.09 57.1712C1077.87 47.241 1109.46 36.864 1143.78 26.5129C1316.27 -25.4495 1520.85 -76.9546 1586.4 -22.4255" stroke="url(#paint8_linear_340_32890)" stroke-opacity="0.5" stroke-miterlimit="10"></path><path d="M77.1778 512.053C243.176 257.952 373.842 161.317 475.224 129.673C544.596 108.008 589.925 121.63 648.607 127.51C682.573 131.157 717.696 132.898 753.604 132.717C865.014 131.689 932.377 106.594 1060.99 64.6864C1090.81 54.9489 1122.44 44.5656 1156.41 34.0204C1329.48 -19.6268 1529.59 -78.4625 1597.86 -28.098" stroke="url(#paint9_linear_340_32890)" stroke-opacity="0.5" stroke-miterlimit="10"></path><path d="M90.9752 519.921C254.819 269.908 385.083 171.642 487.183 137.402C556.379 114.207 603.049 125.278 661.422 129.809C695.732 132.709 730.839 134.196 766.538 134.262C876.391 133.941 944.577 113.34 1073.94 72.3082C1103.95 62.7641 1135.49 52.3836 1169.11 41.6667C1342.56 -13.6213 1538.29 -79.7743 1609.32 -33.6029" stroke="url(#paint10_linear_340_32890)" stroke-opacity="0.5" stroke-miterlimit="10"></path><path d="M104.768 527.792C266.489 281.877 396.376 181.957 499.276 145.103C568.329 120.386 616.358 128.868 674.312 132.075C707.625 133.911 741.704 135.658 779.579 135.784C887.898 136.149 956.915 120.072 1086.98 79.8271C1117.12 70.473 1148.61 60.089 1181.95 49.1815C1355.78 -7.74732 1547.15 -81.2238 1620.88 -39.2106" stroke="url(#paint11_linear_340_32890)" stroke-opacity="0.5" stroke-miterlimit="10"></path><path d="M118.568 535.658C278.177 293.889 407.488 192.342 511.296 152.833C580.201 126.579 629.667 132.42 687.181 134.342C721.121 135.479 755.224 136.95 792.571 137.314C899.371 138.429 969.172 126.803 1099.97 87.3535C1130.25 78.2054 1161.7 67.8117 1194.63 56.7289C1368.8 -1.86652 1555.86 -82.6405 1632.3 -44.7919" stroke="url(#paint12_linear_340_32890)" stroke-opacity="0.5" stroke-miterlimit="10"></path><path d="M132.308 543.543C289.807 305.801 418.904 202.682 523.312 160.57C592.081 132.826 642.968 135.964 700.05 136.632C734.637 137.03 768.74 138.248 805.451 138.891C910.739 140.653 981.322 133.596 1112.97 94.9183C1143.4 85.9378 1174.77 75.547 1207.36 64.3022C1381.91 4.00178 1564.61 -84.0634 1643.78 -50.3792" stroke="url(#paint13_linear_340_32890)" stroke-opacity="0.5" stroke-miterlimit="10"></path><path d="M146.184 551.378C301.478 317.752 430.136 213.095 535.354 168.282C604.01 139.027 656.287 139.45 712.885 138.894C748.115 138.538 782.282 139.522 818.548 140.384C922.251 142.86 993.712 140.283 1125.96 102.433C1157.8 93.1112 1189.22 82.8771 1220.1 71.7706C1394.98 9.85821 1573.46 -85.4748 1655.25 -55.9846" stroke="url(#paint14_linear_340_32890)" stroke-opacity="0.5" stroke-miterlimit="10"></path><path d="M159.984 559.246C313.155 329.719 441.58 223.408 547.288 176.019C615.835 145.268 669.522 142.939 725.782 141.158C761.652 140.033 795.826 140.795 831.54 141.918C933.741 145.089 1006 147.027 1138.89 109.975C1170.76 100.903 1202.13 90.6802 1232.79 79.3697C1408.03 15.6176 1582.14 -86.8812 1666.75 -61.6448" stroke="url(#paint15_linear_340_32890)" stroke-opacity="0.5" stroke-miterlimit="10"></path><path d="M173.782 567.115C324.799 341.676 453.049 233.835 559.414 183.712C627.804 151.511 682.915 146.359 738.618 143.42C775.124 141.508 809.317 142.097 844.503 143.458C945.146 147.336 1018.26 153.761 1151.94 117.493C1183.83 108.649 1215.13 98.4199 1245.58 86.8956C1421.08 21.496 1590.9 -88.29 1678.24 -67.17" stroke="url(#paint16_linear_340_32890)" stroke-opacity="0.5" stroke-miterlimit="10"></path><path d="M187.616 574.975C336.498 353.711 464.295 244.27 571.442 191.454C639.806 157.739 696.225 149.773 751.467 145.705C788.712 142.95 822.84 143.384 857.501 144.999C956.607 149.546 1030.52 160.516 1164.94 125.045C1196.85 116.421 1228.1 106.184 1258.32 94.4563C1434.13 27.3173 1599.67 -89.705 1689.72 -72.7504" stroke="url(#paint17_linear_340_32890)" stroke-opacity="0.5" stroke-miterlimit="10"></path><path d="M201.419 582.844C348.022 365.633 475.709 254.7 583.504 199.239C651.794 164.054 709.515 153.242 764.361 148.082C802.162 144.575 836.44 144.773 870.517 146.638C968.1 151.918 1042.84 167.363 1177.95 132.646C1209.87 124.243 1241.07 113.996 1271.07 102.067C1447.17 33.1721 1608.59 -91.0372 1701.21 -78.2644" stroke="url(#paint18_linear_340_32890)" stroke-opacity="0.5" stroke-miterlimit="10"></path><path d="M215.223 590.714C359.814 377.581 487.153 265.125 595.513 206.918C663.781 170.237 722.768 156.553 777.211 150.268C815.619 145.847 849.914 145.989 883.497 148.118C979.522 154.105 1055.08 174.041 1190.94 140.152C1222.87 131.978 1254.03 121.72 1283.79 109.582C1460.15 38.89 1617.19 -92.5134 1712.68 -83.9047" stroke="url(#paint19_linear_340_32890)" stroke-opacity="0.5" stroke-miterlimit="10"></path><path d="M229.047 598.555C371.488 389.531 498.611 275.624 607.448 214.659C675.674 176.518 735.892 159.938 789.942 152.576C828.961 147.256 863.32 147.3 896.339 149.64C990.866 156.338 1067.25 180.781 1203.81 147.678C1235.76 139.714 1266.88 129.442 1296.43 117.11C1472.88 44.524 1625.84 -93.8887 1724.1 -89.4893" stroke="url(#paint20_linear_340_32890)" stroke-opacity="0.5" stroke-miterlimit="10"></path><path d="M242.828 606.428C470.501 273.838 662.976 176.778 802.93 154.83C955.709 130.867 1031.63 198.785 1216.92 155.203C1434.28 104.061 1617.61 -95.3658 1735.64 -95.0806" stroke="url(#paint21_linear_340_32890)" stroke-opacity="0.5" stroke-miterlimit="10"></path><defs><linearGradient id="paint0_linear_340_32890" x1="668.509" y1="-9.8536" x2="730.816" y2="264.836" gradientUnits="userSpaceOnUse"><stop stop-color="#C2278E"></stop><stop offset="0.567708" stop-color="#D578D5"></stop><stop offset="1" stop-color="#692C91"></stop></linearGradient><linearGradient id="paint1_linear_340_32890" x1="682.731" y1="-2.09787" x2="745.045" y2="272.632" gradientUnits="userSpaceOnUse"><stop stop-color="#C2278E"></stop><stop offset="0.567708" stop-color="#D578D5"></stop><stop offset="1" stop-color="#692C91"></stop></linearGradient><linearGradient id="paint2_linear_340_32890" x1="696.823" y1="5.59398" x2="759.157" y2="280.412" gradientUnits="userSpaceOnUse"><stop stop-color="#C2278E"></stop><stop offset="0.567708" stop-color="#D578D5"></stop><stop offset="1" stop-color="#692C91"></stop></linearGradient><linearGradient id="paint3_linear_340_32890" x1="710.915" y1="13.1744" x2="773.286" y2="288.154" gradientUnits="userSpaceOnUse"><stop stop-color="#C2278E"></stop><stop offset="0.567708" stop-color="#D578D5"></stop><stop offset="1" stop-color="#692C91"></stop></linearGradient><linearGradient id="paint4_linear_340_32890" x1="725.073" y1="20.6464" x2="787.519" y2="295.959" gradientUnits="userSpaceOnUse"><stop stop-color="#C2278E"></stop><stop offset="0.567708" stop-color="#D578D5"></stop><stop offset="1" stop-color="#692C91"></stop></linearGradient><linearGradient id="paint5_linear_340_32890" x1="739.007" y1="27.9725" x2="801.563" y2="303.772" gradientUnits="userSpaceOnUse"><stop stop-color="#C2278E"></stop><stop offset="0.567708" stop-color="#D578D5"></stop><stop offset="1" stop-color="#692C91"></stop></linearGradient><linearGradient id="paint6_linear_340_32890" x1="753.104" y1="35.1775" x2="815.789" y2="311.543" gradientUnits="userSpaceOnUse"><stop stop-color="#C2278E"></stop><stop offset="0.567708" stop-color="#D578D5"></stop><stop offset="1" stop-color="#692C91"></stop></linearGradient><linearGradient id="paint7_linear_340_32890" x1="767.128" y1="42.3788" x2="829.946" y2="319.331" gradientUnits="userSpaceOnUse"><stop stop-color="#C2278E"></stop><stop offset="0.567708" stop-color="#D578D5"></stop><stop offset="1" stop-color="#692C91"></stop></linearGradient><linearGradient id="paint8_linear_340_32890" x1="781.094" y1="49.3257" x2="844.103" y2="327.119" gradientUnits="userSpaceOnUse"><stop stop-color="#C2278E"></stop><stop offset="0.567708" stop-color="#D578D5"></stop><stop offset="1" stop-color="#692C91"></stop></linearGradient><linearGradient id="paint9_linear_340_32890" x1="795.057" y1="56.2073" x2="858.267" y2="334.887" gradientUnits="userSpaceOnUse"><stop stop-color="#C2278E"></stop><stop offset="0.567708" stop-color="#D578D5"></stop><stop offset="1" stop-color="#692C91"></stop></linearGradient><linearGradient id="paint10_linear_340_32890" x1="808.947" y1="62.8932" x2="872.408" y2="342.677" gradientUnits="userSpaceOnUse"><stop stop-color="#C2278E"></stop><stop offset="0.567708" stop-color="#D578D5"></stop><stop offset="1" stop-color="#692C91"></stop></linearGradient><linearGradient id="paint11_linear_340_32890" x1="822.85" y1="69.3994" x2="886.6" y2="350.458" gradientUnits="userSpaceOnUse"><stop stop-color="#C2278E"></stop><stop offset="0.567708" stop-color="#D578D5"></stop><stop offset="1" stop-color="#692C91"></stop></linearGradient><linearGradient id="paint12_linear_340_32890" x1="836.647" y1="75.727" x2="900.729" y2="358.249" gradientUnits="userSpaceOnUse"><stop stop-color="#C2278E"></stop><stop offset="0.567708" stop-color="#D578D5"></stop><stop offset="1" stop-color="#692C91"></stop></linearGradient><linearGradient id="paint13_linear_340_32890" x1="850.394" y1="81.8577" x2="914.853" y2="366.047" gradientUnits="userSpaceOnUse"><stop stop-color="#C2278E"></stop><stop offset="0.567708" stop-color="#D578D5"></stop><stop offset="1" stop-color="#692C91"></stop></linearGradient><linearGradient id="paint14_linear_340_32890" x1="864.148" y1="87.6923" x2="929.045" y2="373.81" gradientUnits="userSpaceOnUse"><stop stop-color="#C2278E"></stop><stop offset="0.567708" stop-color="#D578D5"></stop><stop offset="1" stop-color="#692C91"></stop></linearGradient><linearGradient id="paint15_linear_340_32890" x1="877.812" y1="93.2515" x2="943.214" y2="381.595" gradientUnits="userSpaceOnUse"><stop stop-color="#C2278E"></stop><stop offset="0.567708" stop-color="#D578D5"></stop><stop offset="1" stop-color="#692C91"></stop></linearGradient><linearGradient id="paint16_linear_340_32890" x1="891.388" y1="98.494" x2="957.367" y2="389.383" gradientUnits="userSpaceOnUse"><stop stop-color="#C2278E"></stop><stop offset="0.567708" stop-color="#D578D5"></stop><stop offset="1" stop-color="#692C91"></stop></linearGradient><linearGradient id="paint17_linear_340_32890" x1="903.178" y1="95.8339" x2="971.526" y2="397.17" gradientUnits="userSpaceOnUse"><stop stop-color="#C2278E"></stop><stop offset="0.567708" stop-color="#D578D5"></stop><stop offset="1" stop-color="#692C91"></stop></linearGradient><linearGradient id="paint18_linear_340_32890" x1="914.79" y1="92.4792" x2="985.667" y2="404.962" gradientUnits="userSpaceOnUse"><stop stop-color="#C2278E"></stop><stop offset="0.567708" stop-color="#D578D5"></stop><stop offset="1" stop-color="#692C91"></stop></linearGradient><linearGradient id="paint19_linear_340_32890" x1="926.288" y1="88.6262" x2="999.807" y2="412.755" gradientUnits="userSpaceOnUse"><stop stop-color="#C2278E"></stop><stop offset="0.567708" stop-color="#D578D5"></stop><stop offset="1" stop-color="#692C91"></stop></linearGradient><linearGradient id="paint20_linear_340_32890" x1="937.716" y1="84.5344" x2="1013.93" y2="420.53" gradientUnits="userSpaceOnUse"><stop stop-color="#C2278E"></stop><stop offset="0.567708" stop-color="#D578D5"></stop><stop offset="1" stop-color="#692C91"></stop></linearGradient><linearGradient id="paint21_linear_340_32890" x1="949.124" y1="80.1965" x2="1028.08" y2="428.317" gradientUnits="userSpaceOnUse"><stop stop-color="#C2278E"></stop><stop offset="0.567708" stop-color="#D578D5"></stop><stop offset="1" stop-color="#692C91"></stop></linearGradient></defs></svg>